<?xml version="1.0" standalone="no"?>
<!DOCTYPE svg PUBLIC "-//W3C//DTD SVG 20010904//EN"
 "http://www.w3.org/TR/2001/REC-SVG-20010904/DTD/svg10.dtd">
<svg version="1.0" xmlns="http://www.w3.org/2000/svg"
 width="700.000000pt" height="700.000000pt" viewBox="0 0 700.000000 700.000000"
 preserveAspectRatio="xMidYMid meet">
<metadata>
Created by potrace 1.11, written by Peter Selinger 2001-2013
</metadata>
<g transform="translate(0.000000,700.000000) scale(0.100000,-0.100000)"
fill="#000000" stroke="none">
<path d="M1272 6810 c-231 -61 -425 -261 -477 -492 -14 -64 -16 -143 -13 -628
3 -535 4 -557 24 -610 38 -99 67 -153 117 -214 106 -133 239 -211 422 -250 11
-2 -271 -4 -626 -5 l-647 -1 -30 -28 c-54 -51 -54 -113 0 -164 l30 -28 2962 0
c2101 0 2980 -3 3021 -11 112 -21 188 -77 237 -177 l33 -67 0 -415 c0 -414 0
-415 -24 -467 -31 -70 -111 -144 -184 -171 -63 -24 -108 -30 -72 -10 37 20 55
52 55 96 0 35 -6 49 -29 73 l-29 29 -2911 0 -2911 0 0 -105 0 -105 -49 0 c-27
0 -62 -3 -80 -6 -69 -14 -110 -97 -77 -158 34 -64 -3 -61 731 -66 369 -3 657
-6 642 -8 -56 -4 -184 -34 -262 -61 -307 -107 -567 -325 -733 -615 -222 -387
-222 -905 0 -1292 194 -339 500 -567 888 -660 71 -18 208 -19 2755 -21 l2679
-3 52 25 c130 63 161 231 65 339 -39 43 -101 75 -143 76 l-28 0 0 110 0 110
-2559 0 c-1798 0 -2567 -3 -2589 -11 -86 -30 -85 -157 1 -194 31 -13 29 -13
-28 -9 -61 6 -188 34 -238 53 l-27 11 2 822 3 822 73 23 c40 13 112 27 160 33
56 6 1023 10 2672 10 2479 0 2587 1 2625 19 54 24 109 87 124 144 28 100 -19
205 -111 251 l-52 26 -325 1 c-299 1 -321 2 -269 14 197 48 352 198 415 401
16 53 18 100 18 479 0 406 -1 422 -22 490 -58 183 -218 335 -399 379 -55 13
-31 14 306 15 224 1 380 5 403 12 49 13 115 73 138 124 34 74 21 164 -32 228
-47 57 -99 79 -201 85 l-88 5 0 103 0 104 -2576 0 -2576 0 -29 -29 c-50 -51
-39 -133 23 -168 20 -11 16 -12 -40 -13 -101 0 -169 39 -215 125 -22 39 -22
47 -22 535 l0 495 24 48 c29 59 85 102 152 116 35 8 863 11 2738 11 l2689 0
53 28 c147 76 158 282 21 377 l-44 30 -2756 2 c-2692 2 -2759 2 -2830 -17z"/>
<path d="M1486 6139 c-51 -40 -51 -124 1 -166 l28 -23 2573 0 2572 0 0 105 0
105 -2574 0 -2573 0 -27 -21z"/>
<path d="M1505 5705 c-40 -20 -57 -50 -57 -98 1 -31 8 -47 32 -71 l30 -31
2575 -3 2575 -2 0 110 0 110 -2562 0 c-2250 0 -2567 -2 -2593 -15z"/>
<path d="M220 4055 l0 -105 2909 0 2909 0 31 31 c26 25 31 39 31 76 0 37 -5
50 -31 74 l-31 29 -2909 0 -2909 0 0 -105z"/>
<path d="M220 3610 l0 -110 2911 2 2911 3 29 33 c53 59 34 145 -38 173 -15 5
-1139 9 -2919 9 l-2894 0 0 -110z"/>
<path d="M1486 2139 c-51 -40 -51 -124 1 -166 l28 -23 2573 0 2572 0 0 105 0
105 -2574 0 -2573 0 -27 -21z"/>
<path d="M1505 1705 c-40 -20 -57 -50 -57 -98 1 -31 8 -47 32 -71 l30 -31
2575 -3 2575 -2 0 110 0 110 -2562 0 c-2250 0 -2567 -2 -2593 -15z"/>
<path d="M1479 1241 c-35 -36 -41 -80 -16 -129 27 -55 -144 -52 2632 -52
l2565 0 0 105 0 105 -2576 0 -2576 0 -29 -29z"/>
</g>
</svg>
